<svg xmlns="http://www.w3.org/2000/svg" width="760" height="440" viewBox="0 0 760 440"><rect width="100%" height="100%" fill="white"/><text x="380" y="30" text-anchor="middle" font-family="Arial" font-size="20" font-weight="700">Mean latency by distractor level</text><line x1="90" x2="730" y1="365" y2="365" stroke="#e5e7eb"/><text x="80" y="370" text-anchor="end" font-family="Arial" font-size="12" fill="#4b5563">0.00</text><line x1="90" x2="730" y1="287.5" y2="287.5" stroke="#e5e7eb"/><text x="80" y="292.5" text-anchor="end" font-family="Arial" font-size="12" fill="#4b5563">0.16</text><line x1="90" x2="730" y1="210" y2="210" stroke="#e5e7eb"/><text x="80" y="215" text-anchor="end" font-family="Arial" font-size="12" fill="#4b5563">0.33</text><line x1="90" x2="730" y1="132.5" y2="132.5" stroke="#e5e7eb"/><text x="80" y="137.5" text-anchor="end" font-family="Arial" font-size="12" fill="#4b5563">0.49</text><line x1="90" x2="730" y1="55" y2="55" stroke="#e5e7eb"/><text x="80" y="60" text-anchor="end" font-family="Arial" font-size="12" fill="#4b5563">0.65</text><text x="90" y="390" text-anchor="middle" font-family="Arial" font-size="12">0</text><text x="250" y="390" text-anchor="middle" font-family="Arial" font-size="12">1</text><text x="410" y="390" text-anchor="middle" font-family="Arial" font-size="12">2</text><text x="730" y="390" text-anchor="middle" font-family="Arial" font-size="12">4</text><text x="380" y="422" text-anchor="middle" font-family="Arial" font-size="13">Injected distractors</text><text x="20" y="220" transform="rotate(-90 20 220)" text-anchor="middle" font-family="Arial" font-size="13">Latency (seconds)</text><polyline points="90,144.27189230769233 250,156.0495076923077 410,129.1458 730,132.6798" fill="none" stroke="#1f2937" stroke-width="3"/><circle cx="90" cy="144.27189230769233" r="4" fill="#1f2937"/><circle cx="250" cy="156.0495076923077" r="4" fill="#1f2937"/><circle cx="410" cy="129.1458" r="4" fill="#1f2937"/><circle cx="730" cy="132.6798" r="4" fill="#1f2937"/><polyline points="90,171.80466153846157 250,138.80063076923076 410,121.95666153846153 730,81.02473846153845" fill="none" stroke="#2563eb" stroke-width="3"/><circle cx="90" cy="171.80466153846157" r="4" fill="#2563eb"/><circle cx="250" cy="138.80063076923076" r="4" fill="#2563eb"/><circle cx="410" cy="121.95666153846153" r="4" fill="#2563eb"/><circle cx="730" cy="81.02473846153845" r="4" fill="#2563eb"/><polyline points="90,162.3983076923077 250,137.57732307692308 410,122.24615384615385 730,116.10052307692311" fill="none" stroke="#6b7280" stroke-width="3"/><circle cx="90" cy="162.3983076923077" r="4" fill="#6b7280"/><circle cx="250" cy="137.57732307692308" r="4" fill="#6b7280"/><circle cx="410" cy="122.24615384615385" r="4" fill="#6b7280"/><circle cx="730" cy="116.10052307692311" r="4" fill="#6b7280"/><line x1="540" x2="562" y1="35" y2="35" stroke="#1f2937" stroke-width="3"/><text x="568" y="39" font-family="Arial" font-size="12">BM25</text><line x1="615" x2="637" y1="35" y2="35" stroke="#2563eb" stroke-width="3"/><text x="643" y="39" font-family="Arial" font-size="12">Dense</text><line x1="690" x2="712" y1="35" y2="35" stroke="#6b7280" stroke-width="3"/><text x="718" y="39" font-family="Arial" font-size="12">Hybrid</text></svg>